<svg width="36" height="34" viewBox="0 0 36 34" fill="none" xmlns="http://www.w3.org/2000/svg">
<rect y="0.75" width="36" height="33" rx="6" fill="#ED3B3B"/>
<path d="M14 11.75V11.325C14 10.344 14.384 9.365 15.326 9.087C16.851 8.637 19.149 8.637 20.674 9.087C21.616 9.365 22 10.344 22 11.325V11.75M24.5 13.25L28 9.75M11.5 13.25L8 9.75M12 23.75L8 26.75M11 17.75H7.5M28.5 17.75H25M24 23.75L28 26.75M18 18.75V26.75M11 14.75C11 14.2196 11.2107 13.7109 11.5858 13.3358C11.9609 12.9607 12.4696 12.75 13 12.75H23C23.5304 12.75 24.0391 12.9607 24.4142 13.3358C24.7893 13.7109 25 14.2196 25 14.75V19.75C25 21.6065 24.2625 23.387 22.9497 24.6997C21.637 26.0125 19.8565 26.75 18 26.75V26.75C16.1435 26.75 14.363 26.0125 13.0503 24.6997C11.7375 23.387 11 21.6065 11 19.75V14.75Z" stroke="white" stroke-width="2" stroke-linecap="round" stroke-linejoin="round"/>
</svg>
