<svg width="36" height="34" viewBox="0 0 36 34" fill="none" xmlns="http://www.w3.org/2000/svg">
<rect y="0.75" width="36" height="33" rx="6" fill="#F5BF33"/>
<path fill-rule="evenodd" clip-rule="evenodd" d="M17 13.75V17.92C16.3325 18.1559 15.7699 18.6202 15.4117 19.2308C15.0534 19.8414 14.9225 20.559 15.0422 21.2568C15.1619 21.9546 15.5244 22.5875 16.0657 23.0439C16.6069 23.5002 17.2921 23.7505 18 23.7505C18.708 23.7505 19.3931 23.5002 19.9344 23.0439C20.4757 22.5875 20.8382 21.9546 20.9578 21.2568C21.0775 20.559 20.9467 19.8414 20.5884 19.2308C20.2301 18.6202 19.6675 18.1559 19 17.92V13.75H17ZM17 20.75C17 20.4848 17.1054 20.2304 17.2929 20.0429C17.4805 19.8554 17.7348 19.75 18 19.75C18.2652 19.75 18.5196 19.8554 18.7071 20.0429C18.8947 20.2304 19 20.4848 19 20.75C19 21.0152 18.8947 21.2696 18.7071 21.4571C18.5196 21.6446 18.2652 21.75 18 21.75C17.7348 21.75 17.4805 21.6446 17.2929 21.4571C17.1054 21.2696 17 21.0152 17 20.75Z" fill="white"/>
<path d="M18 9.75C19.8565 9.75 21.637 10.4875 22.9497 11.8003C24.2625 13.113 25 14.8935 25 16.75V17.75H23V16.75C23 15.4239 22.4732 14.1521 21.5355 13.2145C20.5979 12.2768 19.3261 11.75 18 11.75C16.6739 11.75 15.4021 12.2768 14.4645 13.2145C13.5268 14.1521 13 15.4239 13 16.75V17.75H11V16.75C11 14.8935 11.7375 13.113 13.0503 11.8003C14.363 10.4875 16.1435 9.75 18 9.75Z" fill="white"/>
<path fill-rule="evenodd" clip-rule="evenodd" d="M18 27.75C24.075 27.75 29 22.825 29 16.75C29 10.675 24.075 5.75 18 5.75C11.925 5.75 7 10.675 7 16.75C7 22.825 11.925 27.75 18 27.75ZM18 25.75C19.1819 25.75 20.3522 25.5172 21.4442 25.0649C22.5361 24.6126 23.5282 23.9497 24.364 23.114C25.1997 22.2782 25.8626 21.2861 26.3149 20.1942C26.7672 19.1022 27 17.9319 27 16.75C27 15.5681 26.7672 14.3978 26.3149 13.3058C25.8626 12.2139 25.1997 11.2218 24.364 10.386C23.5282 9.55031 22.5361 8.88738 21.4442 8.43508C20.3522 7.98279 19.1819 7.75 18 7.75C15.6131 7.75 13.3239 8.69821 11.636 10.386C9.94821 12.0739 9 14.3631 9 16.75C9 19.1369 9.94821 21.4261 11.636 23.114C13.3239 24.8018 15.6131 25.75 18 25.75Z" fill="white"/>
</svg>
