<svg width="467" height="546" viewBox="0 0 467 546" fill="none" xmlns="http://www.w3.org/2000/svg">
<g clip-path="url(#clip0_3_1726)">
<path d="M451.906 201.241H14.6938C10.7982 201.237 7.06333 199.683 4.30868 196.922C1.55403 194.161 0.00449824 190.417 0 186.512V14.7289C0.00449824 10.8239 1.55403 7.08018 4.30868 4.31896C7.06333 1.55774 10.7982 0.00450897 14.6938 0H451.906C455.802 0.00450897 459.537 1.55774 462.291 4.31896C465.046 7.08018 466.595 10.8239 466.6 14.7289V186.512C466.595 190.417 465.046 194.161 462.291 196.922C459.537 199.683 455.802 201.237 451.906 201.241Z" fill="#F2F2F2"/>
<path d="M349.938 191.847H84.0945C64.2842 191.825 45.2917 183.927 31.2837 169.885C17.2756 155.844 9.39613 136.806 9.37378 116.948V84.3011C9.39611 64.4434 17.2756 45.4055 31.2836 31.364C45.2916 17.3224 64.2842 9.42401 84.0945 9.40149H382.508C402.318 9.42401 421.311 17.3224 435.319 31.364C449.327 45.4055 457.206 64.4434 457.229 84.3011C457.197 112.814 445.882 140.15 425.769 160.312C405.655 180.474 378.384 191.815 349.938 191.847Z" fill="white"/>
<path d="M281.361 58.5774H105.635C104.63 58.5774 103.667 58.1772 102.956 57.4648C102.245 56.7524 101.846 55.7863 101.846 54.7788C101.846 53.7714 102.245 52.8052 102.956 52.0928C103.667 51.3804 104.63 50.9802 105.635 50.9802H281.361C282.367 50.9802 283.33 51.3804 284.041 52.0928C284.752 52.8052 285.151 53.7714 285.151 54.7788C285.151 55.7863 284.752 56.7524 284.041 57.4648C283.33 58.1772 282.367 58.5774 281.361 58.5774Z" fill="#E6E6E6"/>
<path d="M370.317 99.1057H105.635C104.63 99.1057 103.667 98.7055 102.956 97.9931C102.245 97.2808 101.846 96.3146 101.846 95.3071C101.846 94.2997 102.245 93.3335 102.956 92.6211C103.667 91.9087 104.63 91.5085 105.635 91.5085H370.317C371.322 91.5085 372.286 91.9087 372.997 92.6211C373.707 93.3335 374.107 94.2997 374.107 95.3071C374.107 96.3146 373.707 97.2808 372.997 97.9931C372.286 98.7055 371.322 99.1057 370.317 99.1057Z" fill="#E6E6E6"/>
<path d="M370.317 139.634H105.635C104.63 139.634 103.667 139.234 102.956 138.521C102.245 137.809 101.846 136.843 101.846 135.835C101.846 134.828 102.245 133.862 102.956 133.149C103.667 132.437 104.63 132.037 105.635 132.037H370.317C371.322 132.037 372.286 132.437 372.997 133.149C373.707 133.862 374.107 134.828 374.107 135.835C374.107 136.843 373.707 137.809 372.997 138.521C372.286 139.234 371.322 139.634 370.317 139.634Z" fill="#E6E6E6"/>
<path d="M370.317 139.634H105.635C104.63 139.634 103.667 139.234 102.956 138.521C102.245 137.809 101.846 136.843 101.846 135.835C101.846 134.828 102.245 133.862 102.956 133.149C103.667 132.437 104.63 132.037 105.635 132.037H370.317C371.322 132.037 372.286 132.437 372.997 133.149C373.707 133.862 374.107 134.828 374.107 135.835C374.107 136.843 373.707 137.809 372.997 138.521C372.286 139.234 371.322 139.634 370.317 139.634Z" fill="#E6E6E6"/>
<path d="M262.818 103.757C262.86 104.902 263.152 106.023 263.673 107.041C264.194 108.06 264.932 108.952 265.834 109.655C266.736 110.357 267.781 110.852 268.895 111.106C270.009 111.359 271.164 111.365 272.281 111.123L286.733 134.888L292.883 121.805L278.217 101.243C277.686 99.3899 276.496 97.7966 274.871 96.7647C273.247 95.7329 271.301 95.3341 269.403 95.6441C267.505 95.9541 265.786 96.9512 264.573 98.4465C263.359 99.9418 262.735 101.831 262.818 103.757H262.818Z" fill="#FFB6B6"/>
<path d="M371.27 171.866L321.466 144.787L305.757 130.013C305.757 130.013 298.927 128.181 301.441 125.955C303.955 123.729 296.792 121.582 296.792 121.582L288.358 113.651L276.375 122.15L279.843 127.539C279.843 127.539 279.605 136.46 284.48 134.744C289.355 133.028 288.137 140.426 288.137 140.426L317.237 185.643L371.27 171.866Z" fill="#3F3D56"/>
<path d="M224.254 146.353C251.121 146.353 272.901 124.522 272.901 97.591C272.901 70.6602 251.121 48.8285 224.254 48.8285C197.388 48.8285 175.608 70.6602 175.608 97.591C175.608 124.522 197.388 146.353 224.254 146.353Z" fill="#FFE2A7"/>
<path d="M371.424 527.042H361.309L356.495 487.934H371.424V527.042Z" fill="#FFB6B6"/>
<path d="M376.762 544.609H369.509L368.214 537.744L364.898 544.609H345.659C344.737 544.609 343.839 544.313 343.096 543.765C342.353 543.218 341.805 542.446 341.53 541.564C341.256 540.681 341.27 539.734 341.571 538.86C341.871 537.986 342.443 537.231 343.202 536.706L358.565 526.07V519.13L374.725 520.097L376.762 544.609Z" fill="#2F2E41"/>
<path d="M290.525 527.042H280.41L275.597 487.934H290.525V527.042Z" fill="#FFB6B6"/>
<path d="M295.864 544.609H288.61L287.315 537.744L283.999 544.609H264.761C263.838 544.609 262.94 544.313 262.198 543.765C261.455 543.218 260.906 542.446 260.632 541.564C260.357 540.681 260.371 539.734 260.672 538.86C260.973 537.986 261.544 537.231 262.303 536.706L277.667 526.07V519.13L293.826 520.097L295.864 544.609Z" fill="#2F2E41"/>
<path d="M360.691 231.275H309.639V289.535H360.691V231.275Z" fill="#FFB6B6"/>
<path d="M310.817 260.011L302.177 270.246L287.254 301.738L249.652 391.419L241.699 410.385L248.122 443.913C248.122 443.913 249.161 467.534 249.161 471.401C249.161 479.274 255.73 483.636 255.73 483.636L260.55 508.797L307.282 506.829C307.282 506.829 305.652 479.094 295.864 472.098C286.076 465.102 281.577 428.642 281.577 428.642L276.258 412.465L328.096 350.87L328.431 372.401L328.593 382.822C328.593 382.822 321.001 450.603 329.85 463.758C338.699 476.912 330.031 475.364 330.031 475.364L330.452 502.499L385.825 502.893L373.609 424.771C373.609 424.771 367.406 419.861 370.725 414.927C374.043 409.992 367.508 403.947 367.508 403.947L370.439 342.96C370.439 342.96 367.194 332.426 371.011 331.056C374.829 329.687 371.512 320.628 371.512 320.628L372.08 308.824L360.691 272.214L310.817 260.011Z" fill="#2F2E41"/>
<path d="M361.477 231.275L366.975 214.742L370.902 209.231L372.472 193.485C372.472 150.971 363.012 158.05 363.012 158.05L357.549 143.098L332.416 142.31L316.315 157.663L302.962 162.386L297.734 189.619L307.282 218.678L309.639 234.424C305.144 242.742 305.524 238.808 309.246 245.053L353.622 257.256C369.331 262.767 369.331 248.595 366.181 245.053C363.031 241.51 361.477 231.275 361.477 231.275Z" fill="#3F3D56"/>
<path d="M341.736 137.025C354.604 137.025 365.036 126.569 365.036 113.67C365.036 100.771 354.604 90.3148 341.736 90.3148C328.868 90.3148 318.436 100.771 318.436 113.67C318.436 126.569 328.868 137.025 341.736 137.025Z" fill="#FFB6B6"/>
<path d="M372.842 144.845C373.061 145.217 373.194 145.633 373.231 146.063C373.268 146.493 373.207 146.926 373.054 147.329C372.901 147.732 372.659 148.096 372.346 148.392C372.033 148.689 371.658 148.911 371.247 149.042C368.121 150.081 366.197 153.112 363.951 155.537C361.712 157.954 358.107 159.962 355.248 158.316C352.397 156.678 352.201 152.498 349.813 150.231C347.488 148.026 343.624 148.294 340.891 149.971L340.809 150.021C340.337 150.329 339.785 150.492 339.222 150.49C338.659 150.487 338.109 150.319 337.64 150.007C337.171 149.694 336.804 149.25 336.584 148.731C336.363 148.211 336.3 147.638 336.401 147.083C337.359 141.978 338.316 136.873 339.273 131.768C336.759 137.839 333.109 143.371 328.52 148.065C327.256 149.528 325.654 150.657 323.855 151.356C322.221 151.876 320.635 150.183 319.048 150.49C322.991 147.034 336.249 124.879 333.877 110.07C331.088 110.385 328.3 110.7 325.512 111.015C325.21 109.692 324.565 108.473 323.643 107.48C323.755 108.768 323.592 110.064 323.164 111.283C322.001 111.417 320.831 111.543 319.668 111.677C318.051 111.858 316.291 112.015 314.901 111.165C312.584 109.748 312.513 106.394 313.173 103.748C315.105 96.0565 320.964 89.6243 328.135 86.2547C335.306 82.8929 337.427 90.3801 344.983 87.9868C359.906 83.263 371.341 91.3407 375.371 106.331C378.756 118.904 376.298 132.249 372.842 144.845Z" fill="#2F2E41"/>
<path d="M437.346 545.117H408.816L408.693 544.894C408.329 544.231 407.976 543.528 407.647 542.806C404.708 536.499 403.466 529.286 402.37 522.923L401.545 518.126C401.445 517.545 401.52 516.947 401.761 516.41C402.002 515.872 402.398 515.418 402.897 515.107C403.397 514.796 403.977 514.641 404.565 514.663C405.153 514.685 405.721 514.881 406.196 515.228C410.532 518.391 414.869 521.55 419.209 524.707C420.852 525.905 422.728 527.292 424.525 528.791C424.698 527.947 424.88 527.1 425.061 526.265C425.186 525.689 425.48 525.163 425.905 524.755C426.33 524.347 426.866 524.075 427.446 523.975C428.026 523.874 428.623 523.949 429.16 524.191C429.697 524.432 430.15 524.829 430.461 525.33L433.799 530.705C436.233 534.631 438.382 538.5 437.944 542.672C437.946 542.723 437.943 542.774 437.933 542.824C437.845 543.509 437.683 544.182 437.448 544.832L437.346 545.117Z" fill="#F0F0F0"/>
<path d="M465.982 545.735L194.872 546C194.602 545.999 194.342 545.89 194.152 545.698C193.961 545.505 193.854 545.245 193.854 544.974C193.854 544.703 193.961 544.443 194.152 544.25C194.342 544.058 194.602 543.949 194.872 543.948L465.982 543.683C466.252 543.684 466.511 543.793 466.702 543.985C466.893 544.178 467 544.438 467 544.709C467 544.98 466.893 545.241 466.702 545.433C466.511 545.625 466.252 545.734 465.982 545.735Z" fill="#CACACA"/>
<path d="M219.832 163.222L190.011 137.978C188.992 137.113 188.356 135.878 188.244 134.545C188.132 133.211 188.552 131.887 189.413 130.863L194.901 124.348C195.764 123.326 196.996 122.689 198.327 122.577C199.657 122.465 200.978 122.886 201.999 123.748L231.82 148.992C232.84 149.857 233.475 151.092 233.587 152.425C233.7 153.759 233.279 155.083 232.419 156.107L226.93 162.622C226.067 163.644 224.836 164.281 223.505 164.393C222.174 164.505 220.853 164.084 219.832 163.222Z" fill="#3F3D56"/>
<path d="M191.576 131.388C191.112 131.94 190.886 132.653 190.946 133.372C191.007 134.091 191.349 134.756 191.899 135.222L221.719 160.466C222.27 160.931 222.982 161.158 223.699 161.097C224.416 161.037 225.08 160.693 225.544 160.143L231.033 153.628C231.497 153.076 231.723 152.363 231.663 151.644C231.602 150.925 231.26 150.26 230.711 149.794L200.89 124.55C200.339 124.085 199.628 123.858 198.911 123.919C198.193 123.98 197.53 124.323 197.065 124.873L191.576 131.388Z" fill="white"/>
<path d="M209.083 141.202C208.979 141.347 208.844 141.466 208.686 141.549C208.529 141.633 208.354 141.678 208.176 141.682L203.491 141.79C203.34 141.793 203.191 141.767 203.05 141.713C202.91 141.658 202.782 141.576 202.673 141.472C202.564 141.368 202.476 141.243 202.416 141.105C202.355 140.967 202.322 140.818 202.318 140.667C202.315 140.517 202.341 140.366 202.395 140.226C202.45 140.085 202.531 139.956 202.635 139.847C202.739 139.738 202.864 139.651 203.002 139.59C203.139 139.529 203.288 139.496 203.438 139.492L206.504 139.421L203.485 131.437C203.378 131.152 203.388 130.837 203.513 130.559C203.638 130.282 203.868 130.066 204.152 129.958C204.435 129.85 204.751 129.859 205.027 129.984C205.304 130.108 205.521 130.338 205.629 130.622L209.222 140.126C209.287 140.298 209.31 140.483 209.289 140.665C209.268 140.848 209.204 141.023 209.101 141.175L209.083 141.202Z" fill="#FFE2A7"/>
<path d="M209.684 143.208C210.814 143.374 211.894 143.787 212.848 144.417C213.802 145.047 214.606 145.879 215.204 146.855C215.802 147.83 216.18 148.925 216.311 150.062C216.441 151.2 216.321 152.352 215.959 153.438L237.956 170.423L224.312 175.129L205.516 158.279C203.736 157.548 202.285 156.189 201.439 154.458C200.592 152.727 200.408 150.745 200.922 148.888C201.436 147.03 202.611 145.426 204.226 144.379C205.841 143.332 207.783 142.916 209.684 143.208L209.684 143.208Z" fill="#FFB6B6"/>
<path d="M324.202 151.606L267.884 186.315C267.884 186.315 245.177 177.893 249.615 173.995C254.053 170.096 239.926 167.461 239.926 167.461L224.319 156.936L215.263 167.486C215.263 167.486 216.913 184.622 219.721 181.655C222.529 178.687 226.725 186.793 226.725 186.793C226.725 186.793 227.965 195.843 235.958 193.566C243.95 191.288 265.395 215.161 265.395 215.161L334.705 189.25L324.202 151.606Z" fill="#3F3D56"/>
<path d="M222.544 117.152C221.891 117.152 221.247 116.999 220.663 116.706C220.079 116.414 219.571 115.989 219.179 115.465L208.865 101.679C208.534 101.236 208.293 100.733 208.155 100.196C208.018 99.66 207.988 99.1019 208.066 98.5539C208.144 98.0058 208.329 97.4786 208.611 97.0023C208.892 96.5259 209.264 96.1098 209.706 95.7777C210.599 95.1069 211.72 94.8189 212.824 94.977C213.371 95.0553 213.897 95.2408 214.372 95.5229C214.847 95.8049 215.262 96.1781 215.594 96.6209L222.342 105.639L239.674 79.5801C240.292 78.6498 241.254 78.004 242.348 77.7848C243.442 77.5655 244.578 77.7907 245.506 78.4109C246.434 79.0311 247.078 79.9955 247.297 81.0918C247.516 82.1882 247.291 83.3267 246.672 84.257L226.043 115.274C225.67 115.835 225.168 116.298 224.58 116.625C223.991 116.951 223.333 117.131 222.661 117.15C222.622 117.151 222.583 117.152 222.544 117.152Z" fill="white"/>
</g>
<defs>
<clipPath id="clip0_3_1726">
<rect width="467" height="546" fill="white"/>
</clipPath>
</defs>
</svg>
